<svg xmlns="http://www.w3.org/2000/svg" viewBox="0 0 100 100" fill="none" role="img" aria-label="SS Comercio">
  <g stroke="#E85C1A" stroke-width="8.5" stroke-linecap="round" stroke-linejoin="round">
    <!-- Left S (shield half) -->
    <path d="M46 20 H28 c-6 0-10 4-10 10 v8 c0 5 4 8 9 8 h15 v10 c0 5-4 9-10 9 H22 l12 18"/>
    <!-- Right S (mirrored) -->
    <path d="M54 20 H72 c6 0 10 4 10 10 v8 c0 5-4 8-9 8 H58 v10 c0 5 4 9 10 9 h15 L71 83"/>
    <!-- Center pin / anchor shank -->
    <path d="M50 30 V74"/>
  </g>
  <circle cx="50" cy="18" r="7" stroke="#E85C1A" stroke-width="7" fill="none"/>
</svg>
